<svg width="1218" height="324" fill="none" xmlns="http://www.w3.org/2000/svg"><path fill-rule="evenodd" clip-rule="evenodd" d="M.5 324l29.41-12c28.397-12 86.205-36 144.013-66 58.821-30 116.629-66 174.436-108 57.808-42 115.615-90 173.423-72 57.807 18 116.629 102 174.436 126 57.808 24 115.615-12 173.423-54 57.807-42 115.615-90 174.439-114 57.81-24 115.61-24 144.01-24h29.41v324H.5z" fill="#fff" fill-opacity=".03"/><path fill-rule="evenodd" clip-rule="evenodd" d="M1217.5 324l-29.41-12c-28.4-12-86.21-36-144.01-66-58.824-30-116.632-66-174.439-108-57.808-42-115.615-90-173.423-72-57.807 18-116.629 102-174.436 126-57.808 24-115.615-12-173.423-54-57.807-42-115.615-90-174.437-114C116.115 0 58.308 0 29.911 0H.5v324h1217z" fill="#fff" fill-opacity=".05"/></svg>