<svg width="1920" height="329" fill="none" xmlns="http://www.w3.org/2000/svg"><path fill-rule="evenodd" clip-rule="evenodd" d="M0 296.1l64-16.45c64-16.45 192-49.35 320-54.833 128-5.484 256 16.45 384 32.9s256 27.416 384 0c128-27.417 256-93.217 384-137.084 128-43.866 256-65.8 320-76.766l64-10.967V329H0v-32.9z" fill="#000" fill-opacity=".03"/><path fill-rule="evenodd" clip-rule="evenodd" d="M1920 164.5l-64-21.933c-64-21.934-192-65.8-320-43.867s-256 109.667-384 131.6c-128 21.933-256-21.933-384-27.417-128-5.483-256 27.417-384 5.484-128-21.934-256-98.7-320-137.084L0 32.9V329h1920V164.5z" fill="#000" fill-opacity=".05"/><path fill-rule="evenodd" clip-rule="evenodd" d="M0 0l35.2 38.383C70.4 76.767 142.4 153.533 212.8 164.5c72 10.967 142.4-43.867 214.4-65.8 70.4-21.933 142.4-10.967 212.8 27.417 70.4 38.383 142.4 104.183 212.8 98.7 72-5.484 142.4-82.25 214.4-109.667 70.4-27.417 142.4-5.483 212.8 38.383 70.4 43.867 142.4 109.667 212.8 137.084 72 27.416 142.4 16.45 214.4-27.417 70.4-43.867 142.4-120.633 177.6-159.017L1920 65.8V329H0V0z" fill="#000" fill-opacity=".08"/></svg>