<svg width="15" height="18" fill="none" xmlns="http://www.w3.org/2000/svg"><path d="M7.2 0C3.24 0 0 3.24 0 7.2c0 4.86 6.3 10.35 6.57 10.62.18.09.45.18.63.18s.45-.09.63-.18c.27-.27 6.57-5.76 6.57-10.62 0-3.96-3.24-7.2-7.2-7.2zm0 15.93c-1.89-1.8-5.4-5.67-5.4-8.73 0-2.97 2.43-5.4 5.4-5.4s5.4 2.43 5.4 5.4-3.51 6.93-5.4 8.73zm0-12.33a3.61 3.61 0 00-3.6 3.6c0 1.98 1.62 3.6 3.6 3.6s3.6-1.62 3.6-3.6-1.62-3.6-3.6-3.6zm0 5.4c-.99 0-1.8-.81-1.8-1.8s.81-1.8 1.8-1.8S9 6.21 9 7.2 8.19 9 7.2 9z" fill="#fff"/></svg>