<svg width="13" height="16" fill="none" xmlns="http://www.w3.org/2000/svg"><path d="M3.414 10.144c-.148 0-.247.014-.298.029v.942c.06.015.137.019.242.019.383 0 .619-.194.619-.52 0-.294-.203-.47-.563-.47zm2.79.01c-.16 0-.265.014-.326.028v2.088c.061.015.16.015.25.015.654.005 1.08-.355 1.08-1.117.004-.664-.384-1.014-1.005-1.014z" fill="#fff"/><path d="M8 0H1.6A1.6 1.6 0 000 1.6v12.8A1.6 1.6 0 001.6 16h9.6a1.6 1.6 0 001.6-1.6V4.8L8 0zM4.398 11.352c-.247.232-.612.336-1.036.336a1.78 1.78 0 01-.247-.014v1.14H2.4V9.666c.322-.048.649-.07.975-.066.446 0 .763.085.976.255a.938.938 0 01.341.739c0 .313-.105.578-.294.758zm3.046 1.084c-.336.28-.847.412-1.472.412-.374 0-.64-.024-.82-.048V9.666c.324-.047.65-.069.976-.066.606 0 1 .109 1.306.34.332.247.54.64.54 1.204 0 .61-.223 1.032-.53 1.292zm2.956-2.22H9.174v.729h1.146v.587H9.174v1.283H8.45V9.624h1.95v.592zM8 5.6h-.8v-4l4 4H8z" fill="#fff"/></svg>