<svg width="20" height="18" fill="none" xmlns="http://www.w3.org/2000/svg"><path d="M10.708 17.991c4.912 0 8.995-4.083 8.995-8.995C19.703 4.074 15.62 0 10.708 0 5.787 0 1.712 4.066 1.712 8.987h1.5c0-4.163 3.333-7.479 7.496-7.479a7.46 7.46 0 017.496 7.488c0 4.162-3.334 7.513-7.496 7.496a7.464 7.464 0 01-6.068-3.104c-.273-.362-.688-.477-1.058-.256-.353.22-.45.705-.15 1.093 1.676 2.25 4.304 3.766 7.276 3.766zM.628 7.293c-.636 0-.794.433-.45.927l1.975 2.804c.291.406.714.397.997 0l1.975-2.813c.335-.485.177-.918-.45-.918H.627z" fill="#fff"/><path d="M10.69 13.37c1.887 0 3.254-1.05 3.254-2.514 0-1.234-.679-1.896-2.363-2.301l-1.261-.31c-.98-.246-1.411-.59-1.411-1.18 0-.742.696-1.253 1.72-1.253.925 0 1.48.397 1.798 1.243.142.309.38.45.627.45.458 0 .723-.406.564-.935-.247-.935-1.314-1.922-2.99-1.922-1.79 0-3.069 1.032-3.069 2.469 0 1.208.768 1.95 2.39 2.328l1.261.3c.98.23 1.358.565 1.358 1.208 0 .759-.732 1.253-1.878 1.253-1.023 0-1.65-.388-1.967-1.226-.132-.3-.37-.441-.617-.441-.45 0-.688.361-.59.89.21 1.085 1.48 1.94 3.174 1.94zm-.511.864c0 .291.238.538.529.538a.546.546 0 00.538-.538V3.766a.546.546 0 00-.538-.538.538.538 0 00-.53.538v10.468z" fill="#fff"/></svg>