<svg width="16" height="16" fill="none" xmlns="http://www.w3.org/2000/svg"><path d="M1.695 1.575H5.23l1.14 2.849-1.83 1.22a.787.787 0 00-.351.655c.002.074 0 .001 0 .001v.017a1.717 1.717 0 00.005.105c.004.065.012.153.027.26.03.213.09.506.205.85.23.693.685 1.59 1.568 2.474.884.883 1.78 1.337 2.473 1.568.345.115.638.174.852.205a3.454 3.454 0 00.365.032h.015s.089-.005.002 0c.298 0 .57-.168.704-.435l.527-1.055 3.493.582v3.402c-1.662.24-6.152.477-9.68-3.05-3.527-3.528-3.29-8.018-3.05-9.68zm4.127 5.107l1.422-.948c.62-.413.865-1.204.588-1.895L6.692.99A1.575 1.575 0 005.23 0H1.654C.938 0 .265.497.148 1.273-.12 3.04-.483 8.253 3.632 12.368s9.329 3.752 11.095 3.484c.776-.117 1.273-.79 1.273-1.506v-3.443c0-.77-.557-1.426-1.316-1.553l-3.493-.582a1.575 1.575 0 00-1.667.85l-.273.545a3.681 3.681 0 01-.286-.083c-.488-.163-1.166-.497-1.857-1.188-.691-.691-1.025-1.369-1.188-1.857a3.607 3.607 0 01-.098-.353z" fill="#fff"/></svg>