<svg width="106" height="50" fill="none" xmlns="http://www.w3.org/2000/svg"><path d="M9.484 38V12.8h5.832v20.448h12.636V38H9.484zm30.441.288c-2.064 0-3.9-.432-5.508-1.296-1.584-.864-2.844-2.04-3.78-3.528-.912-1.512-1.368-3.228-1.368-5.148 0-1.944.456-3.66 1.368-5.148a9.722 9.722 0 013.78-3.528c1.608-.864 3.444-1.296 5.508-1.296 2.04 0 3.864.432 5.472 1.296 1.608.84 2.868 2.004 3.78 3.492.912 1.488 1.368 3.216 1.368 5.184 0 1.92-.456 3.636-1.368 5.148-.912 1.488-2.172 2.664-3.78 3.528-1.608.864-3.432 1.296-5.472 1.296zm0-4.608c.936 0 1.776-.216 2.52-.648a4.643 4.643 0 001.764-1.836c.432-.816.648-1.776.648-2.88 0-1.128-.216-2.088-.648-2.88a4.643 4.643 0 00-1.764-1.836c-.744-.432-1.584-.648-2.52-.648-.936 0-1.776.216-2.52.648-.744.432-1.344 1.044-1.8 1.836-.432.792-.648 1.752-.648 2.88 0 1.104.216 2.064.648 2.88.456.792 1.056 1.404 1.8 1.836.744.432 1.584.648 2.52.648zm23.482 11.592c-1.824 0-3.588-.228-5.292-.684-1.68-.432-3.084-1.092-4.212-1.98l2.232-4.032c.816.672 1.848 1.2 3.096 1.584 1.272.408 2.52.612 3.744.612 1.992 0 3.432-.444 4.32-1.332.912-.888 1.368-2.208 1.368-3.96v-2.916l.36-4.86-.072-4.896v-4.176h5.328V34.76c0 3.6-.936 6.252-2.808 7.956-1.872 1.704-4.56 2.556-8.064 2.556zm-.864-8.208c-1.8 0-3.432-.384-4.896-1.152a9.527 9.527 0 01-3.492-3.276c-.864-1.416-1.296-3.06-1.296-4.932 0-1.896.432-3.54 1.296-4.932.888-1.416 2.052-2.508 3.492-3.276 1.464-.768 3.096-1.152 4.896-1.152 1.632 0 3.072.336 4.32 1.008 1.248.648 2.22 1.668 2.916 3.06.696 1.368 1.044 3.132 1.044 5.292 0 2.136-.348 3.9-1.044 5.292-.696 1.368-1.668 2.388-2.916 3.06-1.248.672-2.688 1.008-4.32 1.008zm1.116-4.608c.984 0 1.86-.192 2.628-.576a4.532 4.532 0 001.8-1.692c.432-.72.648-1.548.648-2.484 0-.96-.216-1.788-.648-2.484a4.29 4.29 0 00-1.8-1.656c-.768-.408-1.644-.612-2.628-.612-.984 0-1.86.204-2.628.612a4.53 4.53 0 00-1.836 1.656c-.432.696-.648 1.524-.648 2.484 0 .936.216 1.764.648 2.484a4.796 4.796 0 001.836 1.692c.768.384 1.644.576 2.628.576zm25.063 5.832c-2.064 0-3.9-.432-5.508-1.296-1.584-.864-2.844-2.04-3.78-3.528-.912-1.512-1.368-3.228-1.368-5.148 0-1.944.456-3.66 1.368-5.148a9.722 9.722 0 013.78-3.528c1.608-.864 3.444-1.296 5.508-1.296 2.04 0 3.864.432 5.472 1.296 1.608.84 2.868 2.004 3.78 3.492.912 1.488 1.368 3.216 1.368 5.184 0 1.92-.456 3.636-1.368 5.148-.912 1.488-2.172 2.664-3.78 3.528-1.608.864-3.432 1.296-5.472 1.296zm0-4.608c.936 0 1.776-.216 2.52-.648a4.643 4.643 0 001.764-1.836c.432-.816.648-1.776.648-2.88 0-1.128-.216-2.088-.648-2.88a4.643 4.643 0 00-1.764-1.836c-.744-.432-1.584-.648-2.52-.648-.936 0-1.776.216-2.52.648-.744.432-1.344 1.044-1.8 1.836-.432.792-.648 1.752-.648 2.88 0 1.104.216 2.064.648 2.88.456.792 1.056 1.404 1.8 1.836.744.432 1.584.648 2.52.648z" fill="#3D7FED"/></svg>