<svg width="149" height="70" fill="none" xmlns="http://www.w3.org/2000/svg"><path d="M15.812 52V18.4h7.776v27.264h16.848V52H15.812zm40.588.384c-2.752 0-5.2-.576-7.344-1.728-2.112-1.152-3.792-2.72-5.04-4.704-1.216-2.016-1.824-4.304-1.824-6.864 0-2.592.608-4.88 1.824-6.864a12.963 12.963 0 015.04-4.704c2.144-1.152 4.592-1.728 7.344-1.728 2.72 0 5.152.576 7.296 1.728 2.144 1.12 3.824 2.672 5.04 4.656 1.216 1.984 1.824 4.288 1.824 6.912 0 2.56-.608 4.848-1.824 6.864-1.216 1.984-2.896 3.552-5.04 4.704-2.144 1.152-4.576 1.728-7.296 1.728zm0-6.144c1.248 0 2.368-.288 3.36-.864.992-.576 1.776-1.392 2.352-2.448.576-1.088.864-2.368.864-3.84 0-1.504-.288-2.784-.864-3.84-.576-1.056-1.36-1.872-2.352-2.448-.992-.576-2.112-.864-3.36-.864-1.248 0-2.368.288-3.36.864-.992.576-1.792 1.392-2.4 2.448-.576 1.056-.864 2.336-.864 3.84 0 1.472.288 2.752.864 3.84.608 1.056 1.408 1.872 2.4 2.448.992.576 2.112.864 3.36.864zm31.31 15.456c-2.433 0-4.785-.304-7.057-.912-2.24-.576-4.112-1.456-5.616-2.64l2.976-5.376c1.088.896 2.464 1.6 4.128 2.112 1.696.544 3.36.816 4.992.816 2.656 0 4.576-.592 5.76-1.776 1.216-1.184 1.824-2.944 1.824-5.28v-3.888l.48-6.48-.096-6.528v-5.568h7.104V47.68c0 4.8-1.248 8.336-3.744 10.608-2.496 2.272-6.08 3.408-10.752 3.408zm-1.153-10.944c-2.4 0-4.576-.512-6.528-1.536a12.702 12.702 0 01-4.656-4.368c-1.152-1.888-1.728-4.08-1.728-6.576 0-2.528.576-4.72 1.728-6.576 1.184-1.888 2.736-3.344 4.656-4.368 1.952-1.024 4.128-1.536 6.528-1.536 2.176 0 4.096.448 5.76 1.344 1.664.864 2.96 2.224 3.888 4.08.928 1.824 1.392 4.176 1.392 7.056 0 2.848-.464 5.2-1.392 7.056-.928 1.824-2.224 3.184-3.888 4.08-1.664.896-3.584 1.344-5.76 1.344zm1.488-6.144c1.312 0 2.48-.256 3.504-.768a6.043 6.043 0 002.4-2.256c.576-.96.864-2.064.864-3.312 0-1.28-.288-2.384-.864-3.312a5.719 5.719 0 00-2.4-2.208c-1.024-.544-2.192-.816-3.504-.816-1.312 0-2.48.272-3.504.816a6.04 6.04 0 00-2.448 2.208c-.576.928-.864 2.032-.864 3.312 0 1.248.288 2.352.864 3.312a6.394 6.394 0 002.448 2.256c1.024.512 2.192.768 3.504.768zm33.418 7.776c-2.752 0-5.2-.576-7.344-1.728-2.112-1.152-3.792-2.72-5.04-4.704-1.216-2.016-1.824-4.304-1.824-6.864 0-2.592.608-4.88 1.824-6.864a12.963 12.963 0 015.04-4.704c2.144-1.152 4.592-1.728 7.344-1.728 2.72 0 5.152.576 7.296 1.728 2.144 1.12 3.824 2.672 5.04 4.656 1.216 1.984 1.824 4.288 1.824 6.912 0 2.56-.608 4.848-1.824 6.864-1.216 1.984-2.896 3.552-5.04 4.704-2.144 1.152-4.576 1.728-7.296 1.728zm0-6.144c1.248 0 2.368-.288 3.36-.864.992-.576 1.776-1.392 2.352-2.448.576-1.088.864-2.368.864-3.84 0-1.504-.288-2.784-.864-3.84-.576-1.056-1.36-1.872-2.352-2.448-.992-.576-2.112-.864-3.36-.864-1.248 0-2.368.288-3.36.864-.992.576-1.792 1.392-2.4 2.448-.576 1.056-.864 2.336-.864 3.84 0 1.472.288 2.752.864 3.84.608 1.056 1.408 1.872 2.4 2.448.992.576 2.112.864 3.36.864z" fill="#fff"/></svg>