<svg width="1218" height="324" viewBox="0 0 1218 324" fill="none" xmlns="http://www.w3.org/2000/svg">
<path fill-rule="evenodd" clip-rule="evenodd" d="M0.5 324L29.9108 312C58.3075 300 116.115 276 173.923 246C232.744 216 290.552 180 348.359 138C406.167 96 463.974 48 521.782 66C579.589 84 638.411 168 696.218 192C754.026 216 811.833 180 869.641 138C927.448 96 985.256 48 1044.08 24C1101.89 0 1159.69 0 1188.09 0H1217.5V324H1188.09C1159.69 324 1101.89 324 1044.08 324C985.256 324 927.448 324 869.641 324C811.833 324 754.026 324 696.218 324C638.411 324 579.589 324 521.782 324C463.974 324 406.167 324 348.359 324C290.552 324 232.744 324 173.923 324C116.115 324 58.3075 324 29.9108 324H0.5Z" fill="white" fill-opacity="0.03"/>
<path fill-rule="evenodd" clip-rule="evenodd" d="M1217.5 324L1188.09 312C1159.69 300 1101.88 276 1044.08 246C985.256 216 927.448 180 869.641 138C811.833 96 754.026 48 696.218 66C638.411 84 579.589 168 521.782 192C463.974 216 406.167 180 348.359 138C290.552 96 232.744 48 173.922 24C116.115 0 58.3075 0 29.9108 0H0.5V324H29.9108C58.3075 324 116.115 324 173.922 324C232.744 324 290.552 324 348.359 324C406.167 324 463.974 324 521.782 324C579.589 324 638.411 324 696.218 324C754.026 324 811.833 324 869.641 324C927.448 324 985.256 324 1044.08 324C1101.88 324 1159.69 324 1188.09 324H1217.5Z" fill="white" fill-opacity="0.05"/>
</svg>
