<svg width="1920" height="329" viewBox="0 0 1920 329" fill="none" xmlns="http://www.w3.org/2000/svg">
<path fill-rule="evenodd" clip-rule="evenodd" d="M0 296.1L64 279.65C128 263.2 256 230.3 384 224.817C512 219.333 640 241.267 768 257.717C896 274.167 1024 285.133 1152 257.717C1280 230.3 1408 164.5 1536 120.633C1664 76.7666 1792 54.8332 1856 43.8666L1920 32.8999V329H1856C1792 329 1664 329 1536 329C1408 329 1280 329 1152 329C1024 329 896 329 768 329C640 329 512 329 384 329C256 329 128 329 64 329H0V296.1Z" fill="black" fill-opacity="0.03"/>
<path fill-rule="evenodd" clip-rule="evenodd" d="M1920 164.5L1856 142.567C1792 120.633 1664 76.7666 1536 98.6999C1408 120.633 1280 208.367 1152 230.3C1024 252.233 896 208.367 768 202.883C640 197.4 512 230.3 384 208.367C256 186.433 128 109.667 64 71.2832L0 32.8999V329H64C128 329 256 329 384 329C512 329 640 329 768 329C896 329 1024 329 1152 329C1280 329 1408 329 1536 329C1664 329 1792 329 1856 329H1920V164.5Z" fill="black" fill-opacity="0.05"/>
<path fill-rule="evenodd" clip-rule="evenodd" d="M0 0L35.2 38.3833C70.4 76.7667 142.4 153.533 212.8 164.5C284.8 175.467 355.2 120.633 427.2 98.7C497.6 76.7667 569.6 87.7333 640 126.117C710.4 164.5 782.4 230.3 852.8 224.817C924.8 219.333 995.2 142.567 1067.2 115.15C1137.6 87.7333 1209.6 109.667 1280 153.533C1350.4 197.4 1422.4 263.2 1492.8 290.617C1564.8 318.033 1635.2 307.067 1707.2 263.2C1777.6 219.333 1849.6 142.567 1884.8 104.183L1920 65.8V329H1884.8C1849.6 329 1777.6 329 1707.2 329C1635.2 329 1564.8 329 1492.8 329C1422.4 329 1350.4 329 1280 329C1209.6 329 1137.6 329 1067.2 329C995.2 329 924.8 329 852.8 329C782.4 329 710.4 329 640 329C569.6 329 497.6 329 427.2 329C355.2 329 284.8 329 212.8 329C142.4 329 70.4 329 35.2 329H0V0Z" fill="black" fill-opacity="0.08"/>
</svg>
