<svg width="15" height="18" viewBox="0 0 15 18" fill="none" xmlns="http://www.w3.org/2000/svg">
<path d="M7.2 0C3.24 0 0 3.24 0 7.2C0 12.06 6.3 17.55 6.57 17.82C6.75 17.91 7.02 18 7.2 18C7.38 18 7.65 17.91 7.83 17.82C8.1 17.55 14.4 12.06 14.4 7.2C14.4 3.24 11.16 0 7.2 0ZM7.2 15.93C5.31 14.13 1.8 10.26 1.8 7.2C1.8 4.23 4.23 1.8 7.2 1.8C10.17 1.8 12.6 4.23 12.6 7.2C12.6 10.17 9.09 14.13 7.2 15.93ZM7.2 3.6C5.22 3.6 3.6 5.22 3.6 7.2C3.6 9.18 5.22 10.8 7.2 10.8C9.18 10.8 10.8 9.18 10.8 7.2C10.8 5.22 9.18 3.6 7.2 3.6ZM7.2 9C6.21 9 5.4 8.19 5.4 7.2C5.4 6.21 6.21 5.4 7.2 5.4C8.19 5.4 9 6.21 9 7.2C9 8.19 8.19 9 7.2 9Z" fill="white"/>
</svg>
