<svg width="20" height="18" viewBox="0 0 20 18" fill="none" xmlns="http://www.w3.org/2000/svg">
<path d="M10.7077 17.9911C15.62 17.9911 19.7033 13.9079 19.7033 8.99556C19.7033 4.07447 15.62 0 10.7077 0C5.78658 0 1.71211 4.06565 1.71211 8.98676H3.21138C3.21138 4.8241 6.54503 1.50809 10.7077 1.50809C14.8704 1.50809 18.204 4.83292 18.204 8.99556C18.204 13.1583 14.8704 16.5095 10.7077 16.4919C8.19422 16.483 5.98942 15.2661 4.64008 13.3876C4.36669 13.026 3.95219 12.9113 3.58178 13.1318C3.22901 13.3523 3.13201 13.8373 3.43185 14.2253C5.10751 16.4742 7.7356 17.9911 10.7077 17.9911ZM0.627352 7.29348C-0.00762923 7.29348 -0.166375 7.7256 0.177574 8.21951L2.15308 11.024C2.4441 11.4297 2.86742 11.4209 3.14964 11.024L5.12514 8.2107C5.46027 7.7256 5.30153 7.29348 4.67536 7.29348H0.627352Z" fill="white"/>
<path d="M10.6901 13.3698C12.5774 13.3698 13.9443 12.3204 13.9443 10.8564C13.9443 9.62173 13.2653 8.96022 11.5808 8.55459L10.3196 8.24588C9.34069 7.99896 8.90856 7.65504 8.90856 7.06414C8.90856 6.32332 9.6053 5.81181 10.6283 5.81181C11.5543 5.81181 12.1099 6.20867 12.4274 7.05532C12.5685 7.36399 12.8067 7.5051 13.0536 7.5051C13.5122 7.5051 13.7768 7.09941 13.618 6.57026C13.3711 5.63542 12.3039 4.64767 10.6283 4.64767C8.83805 4.64767 7.5592 5.67953 7.5592 7.11705C7.5592 8.32528 8.32653 9.06611 9.94922 9.44533L11.2104 9.74516C12.1893 9.97446 12.5685 10.3096 12.5685 10.9534C12.5685 11.7119 11.8365 12.2058 10.6901 12.2058C9.66701 12.2058 9.04087 11.8177 8.72336 10.9798C8.59106 10.68 8.35294 10.5389 8.10602 10.5389C7.65629 10.5389 7.41814 10.9005 7.51515 11.4296C7.7268 12.5144 8.99677 13.3698 10.6901 13.3698ZM10.1785 14.2342C10.1785 14.5252 10.4166 14.7721 10.7077 14.7721C10.9988 14.7721 11.2457 14.5252 11.2457 14.2342V3.76576C11.2457 3.47472 10.9988 3.22778 10.7077 3.22778C10.4166 3.22778 10.1785 3.47472 10.1785 3.76576V14.2342Z" fill="white"/>
</svg>
