<svg width="19" height="18" viewBox="0 0 19 18" fill="none" xmlns="http://www.w3.org/2000/svg">
<path d="M0 1.89474C0 0.848303 0.848303 0 1.89474 0H17.0526C18.0991 0 18.9474 0.848303 18.9474 1.89474V12.3158C18.9474 13.3622 18.0991 14.2105 17.0526 14.2105H10.4211V16.1053H13.2632C13.7864 16.1053 14.2105 16.5294 14.2105 17.0526C14.2105 17.5758 13.7864 18 13.2632 18H5.68421C5.16099 18 4.73684 17.5758 4.73684 17.0526C4.73684 16.5294 5.16099 16.1053 5.68421 16.1053H8.52632V14.2105H1.89474C0.848304 14.2105 0 13.3622 0 12.3158V1.89474ZM17.0526 12.3158V1.89474H1.89474V12.3158H17.0526Z" fill="#FF7802"/>
</svg>
