<svg width="13" height="16" viewBox="0 0 13 16" fill="none" xmlns="http://www.w3.org/2000/svg">
<path d="M3.4136 10.144C3.2664 10.144 3.1672 10.1584 3.116 10.1728V11.1152C3.1768 11.1296 3.2528 11.1336 3.3576 11.1336C3.7408 11.1336 3.9768 10.94 3.9768 10.6136C3.9768 10.32 3.7736 10.144 3.4136 10.144ZM6.2032 10.1536C6.0432 10.1536 5.9392 10.168 5.8776 10.1824V12.2704C5.9392 12.2848 6.0384 12.2848 6.128 12.2848C6.7816 12.2896 7.2072 11.9296 7.2072 11.168C7.212 10.504 6.824 10.1536 6.2032 10.1536Z" fill="white"/>
<path d="M8 0H1.6C1.17565 0 0.768687 0.168571 0.468629 0.468629C0.168571 0.768687 0 1.17565 0 1.6V14.4C0 14.8243 0.168571 15.2313 0.468629 15.5314C0.768687 15.8314 1.17565 16 1.6 16H11.2C11.6243 16 12.0313 15.8314 12.3314 15.5314C12.6314 15.2313 12.8 14.8243 12.8 14.4V4.8L8 0ZM4.3984 11.352C4.1512 11.584 3.7864 11.688 3.3616 11.688C3.27923 11.6889 3.1969 11.6841 3.1152 11.6736V12.8144H2.4V9.6656C2.7224 9.6176 3.0488 9.5952 3.3752 9.6C3.8208 9.6 4.1376 9.6848 4.3512 9.8552C4.5544 10.0168 4.692 10.2816 4.692 10.5936C4.6912 10.9072 4.5872 11.172 4.3984 11.352ZM7.444 12.436C7.108 12.7152 6.5968 12.848 5.972 12.848C5.5976 12.848 5.3328 12.824 5.1528 12.8V9.6664C5.47568 9.61926 5.80171 9.59706 6.128 9.6C6.7336 9.6 7.1272 9.7088 7.4344 9.9408C7.7664 10.1872 7.9744 10.58 7.9744 11.144C7.9744 11.7544 7.7512 12.176 7.444 12.436ZM10.4 10.216H9.1744V10.9448H10.32V11.532H9.1744V12.8152H8.4496V9.624H10.4V10.216ZM8 5.6H7.2V1.6L11.2 5.6H8Z" fill="white"/>
</svg>
