<svg width="149" height="70" viewBox="0 0 149 70" fill="none" xmlns="http://www.w3.org/2000/svg">
<path d="M15.8121 52V18.4H23.5881V45.664H40.4361V52H15.8121ZM56.4003 52.384C53.6483 52.384 51.2003 51.808 49.0563 50.656C46.9443 49.504 45.2643 47.936 44.0163 45.952C42.8003 43.936 42.1923 41.648 42.1923 39.088C42.1923 36.496 42.8003 34.208 44.0163 32.224C45.2643 30.208 46.9443 28.64 49.0563 27.52C51.2003 26.368 53.6483 25.792 56.4003 25.792C59.1203 25.792 61.5523 26.368 63.6963 27.52C65.8403 28.64 67.5203 30.192 68.7363 32.176C69.9523 34.16 70.5603 36.464 70.5603 39.088C70.5603 41.648 69.9523 43.936 68.7363 45.952C67.5203 47.936 65.8403 49.504 63.6963 50.656C61.5523 51.808 59.1203 52.384 56.4003 52.384ZM56.4003 46.24C57.6483 46.24 58.7683 45.952 59.7603 45.376C60.7523 44.8 61.5363 43.984 62.1123 42.928C62.6883 41.84 62.9763 40.56 62.9763 39.088C62.9763 37.584 62.6883 36.304 62.1123 35.248C61.5363 34.192 60.7523 33.376 59.7603 32.8C58.7683 32.224 57.6483 31.936 56.4003 31.936C55.1523 31.936 54.0323 32.224 53.0403 32.8C52.0483 33.376 51.2483 34.192 50.6403 35.248C50.0643 36.304 49.7763 37.584 49.7763 39.088C49.7763 40.56 50.0643 41.84 50.6403 42.928C51.2483 43.984 52.0483 44.8 53.0403 45.376C54.0323 45.952 55.1523 46.24 56.4003 46.24ZM87.7094 61.696C85.2774 61.696 82.9254 61.392 80.6534 60.784C78.4134 60.208 76.5414 59.328 75.0374 58.144L78.0134 52.768C79.1014 53.664 80.4774 54.368 82.1414 54.88C83.8374 55.424 85.5014 55.696 87.1334 55.696C89.7894 55.696 91.7094 55.104 92.8934 53.92C94.1094 52.736 94.7174 50.976 94.7174 48.64V44.752L95.1974 38.272L95.1014 31.744V26.176H102.205V47.68C102.205 52.48 100.957 56.016 98.4614 58.288C95.9654 60.56 92.3814 61.696 87.7094 61.696ZM86.5574 50.752C84.1574 50.752 81.9814 50.24 80.0294 49.216C78.1094 48.16 76.5574 46.704 75.3734 44.848C74.2214 42.96 73.6454 40.768 73.6454 38.272C73.6454 35.744 74.2214 33.552 75.3734 31.696C76.5574 29.808 78.1094 28.352 80.0294 27.328C81.9814 26.304 84.1574 25.792 86.5574 25.792C88.7334 25.792 90.6534 26.24 92.3174 27.136C93.9814 28 95.2774 29.36 96.2054 31.216C97.1334 33.04 97.5974 35.392 97.5974 38.272C97.5974 41.12 97.1334 43.472 96.2054 45.328C95.2774 47.152 93.9814 48.512 92.3174 49.408C90.6534 50.304 88.7334 50.752 86.5574 50.752ZM88.0454 44.608C89.3574 44.608 90.5254 44.352 91.5494 43.84C92.5734 43.296 93.3734 42.544 93.9494 41.584C94.5254 40.624 94.8134 39.52 94.8134 38.272C94.8134 36.992 94.5254 35.888 93.9494 34.96C93.3734 34 92.5734 33.264 91.5494 32.752C90.5254 32.208 89.3574 31.936 88.0454 31.936C86.7334 31.936 85.5654 32.208 84.5414 32.752C83.5174 33.264 82.7014 34 82.0934 34.96C81.5174 35.888 81.2294 36.992 81.2294 38.272C81.2294 39.52 81.5174 40.624 82.0934 41.584C82.7014 42.544 83.5174 43.296 84.5414 43.84C85.5654 44.352 86.7334 44.608 88.0454 44.608ZM121.463 52.384C118.711 52.384 116.263 51.808 114.119 50.656C112.007 49.504 110.327 47.936 109.079 45.952C107.863 43.936 107.255 41.648 107.255 39.088C107.255 36.496 107.863 34.208 109.079 32.224C110.327 30.208 112.007 28.64 114.119 27.52C116.263 26.368 118.711 25.792 121.463 25.792C124.183 25.792 126.615 26.368 128.759 27.52C130.903 28.64 132.583 30.192 133.799 32.176C135.015 34.16 135.623 36.464 135.623 39.088C135.623 41.648 135.015 43.936 133.799 45.952C132.583 47.936 130.903 49.504 128.759 50.656C126.615 51.808 124.183 52.384 121.463 52.384ZM121.463 46.24C122.711 46.24 123.831 45.952 124.823 45.376C125.815 44.8 126.599 43.984 127.175 42.928C127.751 41.84 128.039 40.56 128.039 39.088C128.039 37.584 127.751 36.304 127.175 35.248C126.599 34.192 125.815 33.376 124.823 32.8C123.831 32.224 122.711 31.936 121.463 31.936C120.215 31.936 119.095 32.224 118.103 32.8C117.111 33.376 116.311 34.192 115.703 35.248C115.127 36.304 114.839 37.584 114.839 39.088C114.839 40.56 115.127 41.84 115.703 42.928C116.311 43.984 117.111 44.8 118.103 45.376C119.095 45.952 120.215 46.24 121.463 46.24Z" fill="white"/>
</svg>
