<svg width="106" height="50" viewBox="0 0 106 50" fill="none" xmlns="http://www.w3.org/2000/svg">
<path d="M9.48409 38V12.8H15.3161V33.248H27.9521V38H9.48409ZM39.9252 38.288C37.8612 38.288 36.0252 37.856 34.4172 36.992C32.8332 36.128 31.5732 34.952 30.6372 33.464C29.7252 31.952 29.2692 30.236 29.2692 28.316C29.2692 26.372 29.7252 24.656 30.6372 23.168C31.5732 21.656 32.8332 20.48 34.4172 19.64C36.0252 18.776 37.8612 18.344 39.9252 18.344C41.9652 18.344 43.7892 18.776 45.3972 19.64C47.0052 20.48 48.2652 21.644 49.1772 23.132C50.0892 24.62 50.5452 26.348 50.5452 28.316C50.5452 30.236 50.0892 31.952 49.1772 33.464C48.2652 34.952 47.0052 36.128 45.3972 36.992C43.7892 37.856 41.9652 38.288 39.9252 38.288ZM39.9252 33.68C40.8612 33.68 41.7012 33.464 42.4452 33.032C43.1892 32.6 43.7772 31.988 44.2092 31.196C44.6412 30.38 44.8572 29.42 44.8572 28.316C44.8572 27.188 44.6412 26.228 44.2092 25.436C43.7772 24.644 43.1892 24.032 42.4452 23.6C41.7012 23.168 40.8612 22.952 39.9252 22.952C38.9892 22.952 38.1492 23.168 37.4052 23.6C36.6612 24.032 36.0612 24.644 35.6052 25.436C35.1732 26.228 34.9572 27.188 34.9572 28.316C34.9572 29.42 35.1732 30.38 35.6052 31.196C36.0612 31.988 36.6612 32.6 37.4052 33.032C38.1492 33.464 38.9892 33.68 39.9252 33.68ZM63.407 45.272C61.583 45.272 59.819 45.044 58.115 44.588C56.435 44.156 55.031 43.496 53.903 42.608L56.135 38.576C56.951 39.248 57.983 39.776 59.231 40.16C60.503 40.568 61.751 40.772 62.975 40.772C64.967 40.772 66.407 40.328 67.295 39.44C68.207 38.552 68.663 37.232 68.663 35.48V32.564L69.023 27.704L68.951 22.808V18.632H74.279V34.76C74.279 38.36 73.343 41.012 71.471 42.716C69.599 44.42 66.911 45.272 63.407 45.272ZM62.543 37.064C60.743 37.064 59.111 36.68 57.647 35.912C56.207 35.12 55.043 34.028 54.155 32.636C53.291 31.22 52.859 29.576 52.859 27.704C52.859 25.808 53.291 24.164 54.155 22.772C55.043 21.356 56.207 20.264 57.647 19.496C59.111 18.728 60.743 18.344 62.543 18.344C64.175 18.344 65.615 18.68 66.863 19.352C68.111 20 69.083 21.02 69.779 22.412C70.475 23.78 70.823 25.544 70.823 27.704C70.823 29.84 70.475 31.604 69.779 32.996C69.083 34.364 68.111 35.384 66.863 36.056C65.615 36.728 64.175 37.064 62.543 37.064ZM63.659 32.456C64.643 32.456 65.519 32.264 66.287 31.88C67.055 31.472 67.655 30.908 68.087 30.188C68.519 29.468 68.735 28.64 68.735 27.704C68.735 26.744 68.519 25.916 68.087 25.22C67.655 24.5 67.055 23.948 66.287 23.564C65.519 23.156 64.643 22.952 63.659 22.952C62.675 22.952 61.799 23.156 61.031 23.564C60.263 23.948 59.651 24.5 59.195 25.22C58.763 25.916 58.547 26.744 58.547 27.704C58.547 28.64 58.763 29.468 59.195 30.188C59.651 30.908 60.263 31.472 61.031 31.88C61.799 32.264 62.675 32.456 63.659 32.456ZM88.7221 38.288C86.6581 38.288 84.8221 37.856 83.2141 36.992C81.6301 36.128 80.3701 34.952 79.4341 33.464C78.5221 31.952 78.0661 30.236 78.0661 28.316C78.0661 26.372 78.5221 24.656 79.4341 23.168C80.3701 21.656 81.6301 20.48 83.2141 19.64C84.8221 18.776 86.6581 18.344 88.7221 18.344C90.7621 18.344 92.5861 18.776 94.1941 19.64C95.8021 20.48 97.0621 21.644 97.9741 23.132C98.8861 24.62 99.3421 26.348 99.3421 28.316C99.3421 30.236 98.8861 31.952 97.9741 33.464C97.0621 34.952 95.8021 36.128 94.1941 36.992C92.5861 37.856 90.7621 38.288 88.7221 38.288ZM88.7221 33.68C89.6581 33.68 90.4981 33.464 91.2421 33.032C91.9861 32.6 92.5741 31.988 93.0061 31.196C93.4381 30.38 93.6541 29.42 93.6541 28.316C93.6541 27.188 93.4381 26.228 93.0061 25.436C92.5741 24.644 91.9861 24.032 91.2421 23.6C90.4981 23.168 89.6581 22.952 88.7221 22.952C87.7861 22.952 86.9461 23.168 86.2021 23.6C85.4581 24.032 84.8581 24.644 84.4021 25.436C83.9701 26.228 83.7541 27.188 83.7541 28.316C83.7541 29.42 83.9701 30.38 84.4021 31.196C84.8581 31.988 85.4581 32.6 86.2021 33.032C86.9461 33.464 87.7861 33.68 88.7221 33.68Z" fill="#3D7FED"/>
</svg>
